HIERARCHY
ROOT joint_0
{
	OFFSET 0.000000 0.000000 0.000000
	CHANNELS 6 Xposition Yposition Zposition Zrotation Yrotation Xrotation 
	JOINT joint_1
	{
		OFFSET 7.566162 2.250183 114.799927
		CHANNELS 3 Zrotation Yrotation Xrotation
		JOINT joint_2
		{
			OFFSET -5.201660 -0.414001 104.936035
			CHANNELS 3 Zrotation Yrotation Xrotation
			JOINT joint_3
			{
				OFFSET -6.923584 -0.419739 104.718018
				CHANNELS 3 Zrotation Yrotation Xrotation
				JOINT joint_4
				{
					OFFSET 3.108887 2.881104 149.449951
					CHANNELS 3 Zrotation Yrotation Xrotation
					JOINT joint_5
					{
						OFFSET 19.988770 5.920349 90.786987
						CHANNELS 3 Zrotation Yrotation Xrotation
						End Site
						{
							OFFSET 0.000000 0.000000 0.000000
						}
					}
				}
				JOINT joint_6
				{
					OFFSET 9.283936 -30.015930 84.410034
					CHANNELS 3 Zrotation Yrotation Xrotation
					JOINT joint_7
					{
						OFFSET 47.243164 -155.716736 -23.241089
						CHANNELS 3 Zrotation Yrotation Xrotation
						JOINT joint_8
						{
							OFFSET 31.323730 -15.356873 -268.798950
							CHANNELS 3 Zrotation Yrotation Xrotation
							JOINT joint_9
							{
								OFFSET 28.122314 -2.114624 -262.450012
								CHANNELS 3 Zrotation Yrotation Xrotation
								End Site
								{
									OFFSET 0.000000 0.000000 0.000000
								}
							}
						}
					}
				}
				JOINT joint_10
				{
					OFFSET -5.580566 33.311218 83.498047
					CHANNELS 3 Zrotation Yrotation Xrotation
					JOINT joint_11
					{
						OFFSET -22.773438 160.515381 -27.138062
						CHANNELS 3 Zrotation Yrotation Xrotation
						JOINT joint_12
						{
							OFFSET 27.004395 30.848877 -267.937988
							CHANNELS 3 Zrotation Yrotation Xrotation
							JOINT joint_13
							{
								OFFSET 32.625000 14.824585 -261.518005
								CHANNELS 3 Zrotation Yrotation Xrotation
								End Site
								{
									OFFSET 0.000000 0.000000 0.000000
								}
							}
						}
					}
				}
			}
		}
	}
	JOINT joint_14
	{
		OFFSET 20.623535 -83.447632 -106.174011
		CHANNELS 3 Zrotation Yrotation Xrotation
		JOINT joint_15
		{
			OFFSET 0.661865 -23.563843 -459.915039
			CHANNELS 3 Zrotation Yrotation Xrotation
			JOINT joint_16
			{
				OFFSET -23.461670 -28.727966 -444.760971
				CHANNELS 3 Zrotation Yrotation Xrotation
				JOINT joint_17
				{
					OFFSET 178.992920 54.047363 -80.113001
					CHANNELS 3 Zrotation Yrotation Xrotation
					End Site
					{
						OFFSET 0.000000 0.000000 0.000000
					}
				}
			}
		}
	}
	JOINT joint_18
	{
		OFFSET -19.571533 84.686279 -105.380005
		CHANNELS 3 Zrotation Yrotation Xrotation
		JOINT joint_19
		{
			OFFSET -22.949951 3.639404 -459.933044
			CHANNELS 3 Zrotation Yrotation Xrotation
			JOINT joint_20
			{
				OFFSET -33.690674 4.092651 -445.010971
				CHANNELS 3 Zrotation Yrotation Xrotation
				JOINT joint_21
				{
					OFFSET 187.419678 18.953857 -76.759001
					CHANNELS 3 Zrotation Yrotation Xrotation
					End Site
					{
						OFFSET 0.000000 0.000000 0.000000
					}
				}
			}
		}
	}
}
MOTION
Frames: 8
Frame Time: 0.016667
-2655.610352 856.317444 1086.197998 -13.553384 1.726680 -0.811500 -1.997730 7.915414 2.022551 0.568832 -1.265435 -0.518355 1.190143 1.525599 0.199008 0.865677 -3.866079 -2.110198 0.000000 0.000000 0.000000 3.542466 8.800071 -6.976077 -6.087295 5.946017 -11.652936 2.937884 -72.066764 56.448136 0.000000 0.000000 0.000000 2.379426 8.009332 -2.335268 15.735259 9.785807 11.167546 1.032386 -85.322976 -48.203114 0.000000 0.000000 0.000000 2.354849 -7.067203 -4.302707 -1.126514 33.996518 -7.077417 -4.980008 -7.390815 0.656056 0.000000 0.000000 0.000000 3.825383 -12.616154 15.483718 2.753519 63.496690 -6.310849 -5.279070 -5.505351 -1.235064 0.000000 0.000000 0.000000 
-2644.154785 862.230408 1090.598999 -13.453728 1.719745 -0.798596 -1.705915 7.862035 2.138552 0.524576 -1.226547 -0.563579 1.037515 1.477608 0.231040 0.864834 -3.965008 -2.120277 0.000000 0.000000 0.000000 3.475143 8.018351 -6.691125 -5.560752 5.472052 -11.325459 3.263064 -68.147723 55.097561 0.000000 0.000000 0.000000 2.527989 7.221912 -2.312858 14.563064 9.097806 10.056221 0.410970 -80.345099 -46.826541 0.000000 0.000000 0.000000 1.973747 -6.044544 -4.813301 -1.098491 32.657356 -6.982859 -4.627267 -5.829993 0.284672 0.000000 0.000000 0.000000 4.537630 -14.478248 15.451026 2.992999 61.951558 -5.075109 -3.075192 -6.568852 -0.353519 0.000000 0.000000 0.000000 
-2632.331787 868.287598 1094.077026 -13.264212 1.811472 -0.794552 -1.412491 7.690864 2.178597 0.449450 -1.204198 -0.595396 0.863539 1.445244 0.247269 0.834464 -4.039917 -2.016593 0.000000 0.000000 0.000000 3.531427 7.438537 -6.333840 -4.621570 5.264702 -10.748694 3.707657 -63.088503 52.041406 0.000000 0.000000 0.000000 2.703493 6.303863 -2.325636 13.521739 8.299039 9.336183 -0.109320 -74.963794 -45.638582 0.000000 0.000000 0.000000 1.471404 -4.860768 -5.390215 -1.166319 30.905942 -6.797879 -4.295206 -4.505024 -0.028193 0.000000 0.000000 0.000000 4.972056 -16.298433 15.406943 3.097719 59.763268 -4.071717 -1.517019 -7.525749 0.210927 0.000000 0.000000 0.000000 
-2620.298340 874.679321 1096.791016 -13.054109 1.950044 -0.803366 -1.116146 7.492385 2.166912 0.361606 -1.200855 -0.614052 0.689802 1.422062 0.254727 0.789665 -4.127783 -1.843238 0.000000 0.000000 0.000000 3.635909 6.940588 -5.931593 -3.680620 5.138449 -10.070627 4.091474 -57.883454 48.223186 0.000000 0.000000 0.000000 2.875592 5.313713 -2.389429 12.557486 7.406894 8.843515 -0.552511 -69.400135 -44.552208 0.000000 0.000000 0.000000 0.931372 -3.608138 -6.035618 -1.292130 28.965562 -6.501263 -3.992658 -3.291366 -0.317889 0.000000 0.000000 0.000000 5.140995 -17.946689 15.349553 3.114961 56.847765 -3.322521 -0.545725 -8.158329 0.540156 0.000000 0.000000 0.000000 
-2608.276123 881.335449 1098.177979 -12.927504 2.052884 -0.816022 -0.850422 7.363031 2.070616 0.282017 -1.208911 -0.603158 0.543872 1.414794 0.249516 0.749878 -4.238861 -1.670924 0.000000 0.000000 0.000000 3.682725 6.640633 -5.682047 -3.192330 5.023706 -9.774002 4.214011 -54.769145 45.393661 0.000000 0.000000 0.000000 2.962362 4.366659 -2.529349 11.936027 6.549138 8.645210 -0.815419 -65.054827 -44.163419 0.000000 0.000000 0.000000 0.499087 -2.525774 -6.696048 -1.423808 27.455731 -6.191747 -3.796184 -2.258156 -0.580267 0.000000 0.000000 0.000000 5.003800 -19.317048 15.311182 3.009088 53.591647 -2.939975 -0.316016 -8.742502 0.649170 0.000000 0.000000 0.000000 
-2596.457031 888.216858 1098.030029 -12.855940 2.124587 -0.838885 -0.619629 7.321874 1.899950 0.199237 -1.207601 -0.566321 0.407496 1.424490 0.230599 0.721948 -4.400776 -1.522590 0.000000 0.000000 0.000000 3.654970 6.727049 -5.778078 -3.262960 5.036999 -10.155122 4.036030 -54.928478 44.377996 0.000000 0.000000 0.000000 2.938546 3.446636 -2.762796 11.846731 5.786881 8.935442 -0.848106 -62.474818 -45.000329 0.000000 0.000000 0.000000 0.173872 -1.675516 -7.333301 -1.570174 26.503382 -5.933726 -3.719369 -1.491834 -0.793902 0.000000 0.000000 0.000000 4.401637 -20.414282 15.381592 2.581579 49.886960 -3.084173 -1.080345 -9.666924 0.481008 0.000000 0.000000 0.000000 
-2584.648682 895.363647 1096.553955 -12.884022 2.148745 -0.894723 -0.393536 7.372959 1.705045 0.125336 -1.224560 -0.527845 0.289620 1.443429 0.199485 0.697651 -4.582009 -1.377586 0.000000 0.000000 0.000000 3.580971 7.066146 -6.074207 -3.589224 5.141483 -10.939362 3.707637 -56.898300 44.248726 0.000000 0.000000 0.000000 2.839768 2.550683 -3.016345 12.105559 5.095960 9.484795 -0.726480 -60.920659 -46.738609 0.000000 0.000000 0.000000 -0.051970 -0.995919 -7.943397 -1.711739 26.004395 -5.712868 -3.720201 -0.954911 -0.956357 0.000000 0.000000 0.000000 3.491590 -21.154158 15.554953 1.893242 45.623567 -3.527329 -2.327054 -10.344581 0.132512 0.000000 0.000000 0.000000 
-2572.490234 902.826355 1093.806030 -13.155586 2.053601 -0.986495 -0.162876 7.495205 1.503700 0.085933 -1.273899 -0.497285 0.214948 1.457808 0.156211 0.668848 -4.689594 -1.228055 0.000000 0.000000 0.000000 3.456794 7.336568 -6.350126 -3.829247 5.143399 -11.731847 3.457593 -58.765634 44.097062 0.000000 0.000000 0.000000 2.680360 1.820728 -3.152785 12.436813 4.510509 9.736142 -0.539940 -59.846259 -48.763079 0.000000 0.000000 0.000000 -0.083738 -0.588883 -8.539389 -1.767276 26.257931 -5.538528 -3.781580 -0.591594 -1.072494 0.000000 0.000000 0.000000 2.715380 -21.526333 15.680809 1.312322 41.563482 -3.787507 -3.191081 -10.078485 -0.182825 0.000000 0.000000 0.000000 
